<svg width="390" height="390" viewBox="0 0 390 390" fill="none" xmlns="http://www.w3.org/2000/svg">
<path d="M382.762 382.759C391.352 374.168 391.352 360.238 382.762 351.647L225.77 194.658L382.762 37.6688C391.352 29.0775 391.352 15.1478 382.762 6.55621C374.168 -2.03534 360.238 -2.03534 351.648 6.55621L194.66 163.546L37.668 6.55597C29.0781 -2.03558 15.1484 -2.03558 6.55859 6.55597C-2.03516 15.1475 -2.03516 29.0772 6.55859 37.6688L163.547 194.658L6.55859 351.647C-2.03516 360.238 -2.03516 374.168 6.55859 382.759C15.1484 391.351 29.0781 391.351 37.668 382.759L194.66 225.77L351.648 382.759C360.238 391.351 374.168 391.351 382.762 382.759Z" fill="#A05960"/>
</svg>
